<svg id="Grupo_18" data-name="Grupo 18" xmlns="http://www.w3.org/2000/svg" width="145.108" height="213.598" viewBox="0 0 145.108 213.598">
  <g id="Grupo_12" data-name="Grupo 12" transform="translate(76.829 72.81)">
    <rect id="Retângulo_7" data-name="Retângulo 7" width="31.909" height="60.483" rx="15.954" transform="translate(51.844 0) rotate(59)" fill="#00c2ef"/>
    <rect id="Retângulo_6" data-name="Retângulo 6" width="32.009" height="82.137" rx="16.005" transform="translate(5.736 21.315)" fill="#007ec6"/>
    <rect id="Retângulo_10" data-name="Retângulo 10" width="31.909" height="60.483" rx="15.954" transform="translate(51.844 53.067) rotate(59)" fill="#009ff7"/>
  </g>
  <g id="Grupo_13" data-name="Grupo 13" transform="translate(0 102.028)">
    <rect id="Retângulo_7-2" data-name="Retângulo 7" width="31.909" height="60.483" rx="15.954" transform="translate(68.279 31.151) rotate(121)" fill="#00c2ef"/>
    <rect id="Retângulo_6-2" data-name="Retângulo 6" width="32.009" height="82.137" rx="16.005" transform="translate(30.533 21.315)" fill="#007ec6"/>
    <rect id="Retângulo_10-2" data-name="Retângulo 10" width="31.909" height="60.483" rx="15.954" transform="translate(68.279 84.218) rotate(121)" fill="#009ff7"/>
  </g>
  <g id="Grupo_14" data-name="Grupo 14" transform="translate(13.373 0)">
    <rect id="Retângulo_7-3" data-name="Retângulo 7" width="31.909" height="60.483" rx="15.954" transform="translate(0 80.418) rotate(-59)" fill="#00c2ef"/>
    <rect id="Retângulo_6-3" data-name="Retângulo 6" width="32.009" height="82.137" rx="16.005" transform="translate(5.736 8.117)" fill="#007ec6"/>
    <rect id="Retângulo_11" data-name="Retângulo 11" width="32.009" height="82.137" rx="16.005" transform="translate(10.277 11.998)" fill="#007ec6"/>
    <rect id="Retângulo_10-3" data-name="Retângulo 10" width="31.909" height="60.483" rx="15.954" transform="translate(0 27.351) rotate(-59)" fill="#009ff7"/>
  </g>
</svg>
